/* XPM */
static char *ec0a1119aa714122e38805bf9951067fJeckPoRjT1tmEp8m[] = {
/* columns rows colors chars-per-pixel */
"64 64 82 1 ",
"  c #DF2527",
". c #DE2628",
"X c #D52E2C",
"o c #DC2A29",
"O c #CE332F",
"+ c #D1322E",
"@ c #DB3329",
"# c #D03C2F",
"$ c #DA3B2A",
"% c #CB3631",
"& c #C43D34",
"* c #C83932",
"= c #AE4F3E",
"- c #BE4237",
"; c #BB4538",
": c #B44A3B",
"> c #AD513E",
", c #B8653A",
"< c #AC753F",
"1 c #B0773D",
"2 c #B4793C",
"3 c #BB7E39",
"4 c #D7462B",
"5 c #D8442B",
"6 c #D74B2C",
"7 c #D5532D",
"8 c #D35B2E",
"9 c #C04035",
"0 c #C24F35",
"q c #D2632E",
"w c #D06C2F",
"e c #CF722F",
"r c #D0732F",
"t c #C36E36",
"y c #D16B30",
"u c #C17136",
"i c #CF7430",
"p c #CD7C31",
"a c #D07130",
"s c #9E5F46",
"d c #A65741",
"f c #AA5340",
"g c #A25A44",
"h c #9B6146",
"j c #9D6C46",
"k c #94674A",
"l c #996448",
"z c #93684A",
"x c #986948",
"c c #A16444",
"v c #AA6040",
"b c #A57142",
"n c #AA7440",
"m c #BF8037",
"M c #C48335",
"N c #CB8732",
"B c #CC8933",
"V c #CF8C36",
"C c #D08C37",
"Z c #D08D38",
"A c #D3903A",
"S c #D4913B",
"D c #D4923C",
"F c #D6943E",
"G c #D8953F",
"H c #D79740",
"J c #D89740",
"K c #DA9942",
"L c #DB9B44",
"P c #DC9B44",
"I c #DB9C44",
"U c #DD9D46",
"Y c #DF9F48",
"T c #E09F48",
"R c #DEA048",
"E c #E1A24A",
"W c #E3A54D",
"Q c #E5A74E",
"! c #E6A84F",
"~ c #E6A950",
"^ c #E8AB52",
"/ c #E8AC53",
/* pixels */
"................................................................",
"................................................................",
"....................... .ooo.  .................................",
"......................+&:dgf:&%X................................",
"..................o+->hkzzzzzkkg+...............................",
".................o:lkzkkkkkkkkkz&...............................",
".................+hzkkzzzzzzzkxc#@@@@ooo........................",
".................Xgzkxjbnbn<13mMpppppiiw6o......................",
".................@,n1MMNNNNNNBNNNNNNNNNNNq$o....................",
"...............@7iNNBNNNNNNNNNBNNNNZZNNNNNNq$...................",
".............@7pNNNNNNNNNNNBCADNNNZHHVNNNNNNp6o.................",
"...........o6pNNNNNNNNNNNNNCJUFBNNDUEVNNNNNNNN7o................",
"..........@qNNNNNNNNNNNNNNNZUUSNNNZUFNNNNNVCVVN8o...............",
".........@wNNNNNNNNNBADVNNNBVVNNNNBVNNNNNNDLKANN4...............",
"........@eNNNNNVZBNNVUEKVNNNNNNNNNNNNNNNNVKRUVNNp5..............",
".......$iNNNNNNAKFNNCGJDBNNNNNNNNNNNNNNVNNVZZNNNNwo.............",
"......4pVDZBNNNZUUBNBVCCNNNNNNNNNNNNNBZFVNNNNDFZNN$.............",
".....@pNCUFVNNNZKKNNNNNNNVVNNNNNNNNNNZKUANNNBY~EBNqo............",
".....4NNVEKVNNNBZCNNNNNNNJHVNNNNBAVNNZURZNNNNK/QZNN6............",
".....qNNBZFZNNNNNNNNNNNNBULZNNNNZJFBNVFZNNNNNCULVNNN5...........",
"....@pNNNNVBNNNNNNNNNNNNBPLZNNNBDUUVNNNNNNNNNNNNNNNNwo..........",
"....$NNNNNNNNNNNNNNNNNNNNCDVNNNNZUFNNNNNNNNNNNNNNNNNN4..........",
"....4NVBNNNNNNNNNNNNNNNNNNNNNNNNBCBNNNNNNNNVVVBNNNVFFyo.........",
"....7NDFVNNNNNZJFVNNNNNNNNNNNNNNNNNNNNNNNNVJKFVNNVPEKp@.........",
"....qVUUANNNNNJEKVNNNNNNNNNNNNNNNNBVNNNNNNAUEDNNNVJFABqo........",
"...oiVKKZNNNNBDKDVNNNNNNNNNNNNNNNVDLVNNNNNBVCVNNNBZVNNN$........",
"...$NNVDVNNNNNVCVBNNVFVNNNNNNNNNNVFEKNNNNNNNNNNNNNNNNNNq........",
"...7NNNNNNNNNNNNNNNBU^IBNNNNNNNNNNZKKVNNNNNNNNNNNNNNNNNp@.......",
"..oqNNNNNNNNNNNNNNNCQ/WCNNNNNVBNNNBZVNNNNNNppNNBCVNNNNNN8.......",
"..@pNNNNNNNNNNNNNNNVE^UBNNNNVKDVNNNNNNNNNNNq7NNDKUCNNBZVN$......",
"..@pNNNNVADBNNNNNNNNVGCNNNNNZRFVNNNNNNNNNNNp$qNCJUJNNZUFVwo.....",
"..oaNNNNDTKVNNNNNNNNNNNNNVAZVRKVNNNNNNNNNNNN7oqNZAVNNAEFVN6.....",
"...qNNNNAFZBNNNNNNNNNNNNVUEKVZDVNNNNNNNZDVNNyo@pNNNNNCFFVNi@....",
"...7NNNNVBNNNNNNNNNNNNNNVJKDBNNNNNNNNNVJEUVNp@.qNNNNNNBVNNN4....",
"...5NNNNNNNNNNNN7pNNNNNNBSZVNNNNNNNNNNVFKFVNN4 $NNNBVVNNNNNq....",
"...$NNNNNNNNNNNqoiNNNNNNNNNNNNNNNNNNNNNVZZNNNq.oqNNZKFVNNNNio...",
"...@pNNNNNNNNNN5owNNBZAZNNNNNNNNNNNNNNNNNNNNNp$ 5NNZEKZNNNNro...",
"...@pNNNNNNNNNN$.8NNVFLDBNNNNNNNNVFDNNNNNNNNNN8.oiNBKHSNNNMto...",
"...oiNNNNNNNNNN$ 7NNVUEHNNNNNNNNZE~UVNNNNNNNNNi@.qNNBVBNmnxl&...",
"...oiNNNBZVNNNN4 4NNBAAVNNNNNNNNZEEKVNNNNNNNNNN4.$pNNNMnxzkz=...",
"...oiNNCUUANNNN7 $NNNNNNNNVAVBNNCJKZNNNNNNNNNNNwo.4NN3jzkkzh*...",
"...owNNZUKANNNN8.@pNNNNNNNDEUZNNBVVNNNNNNNNNNNNN$..4txzkzh:+....",
"....8NNZDZVNNNNq.owNNNBBNBDKJZNNNNNNNNNNNZABNNNN7.. &kzk>O......",
"....4NNNBNNBVAVwo.8NNNDDVNVZZVNNNNNNNNNND!~FNNNNq...o::&o.......",
"....$NNNNNNZJKVio.7NNBFUDNNNNNNNNNNNNNNNF//UNNNNyo..............",
"....@pNNNNNFUUVp@ 6NNVGYSNNNNNNBVNNNNNNND~~KNNNNio..............",
"....oaNNNNNZDVNN$ 4NNBAKVNNNNNBAUZNNNNNNBAZBNNNNio..............",
".....8NNNNNNNNNN4 $NNNNVNNNNNNVFRUVNNNNNNNNNNNNNp@..............",
".....8NVFVNNNNNN4.oiNNNNNNZANNNZFKVNNNNNNNNNNBBNio..............",
".....qNJUDVNNNNN6..8NNNNNDEKVNNNZVNNNBBNNNMMM3138...............",
".....7NKUANNNNNp$..4NNNNNJUFVNNNNNNNM32<<bxxxxzh+...............",
".....$NVDZNNNBB8...@pNNNNZDVNNNNNNM1jxkzzzkkkkzsX...............",
".....owNBNMMM210o..oaNNNNBBNNBNNM1xkzkkkkkkzzzz:................",
"......$p3bjxxkzk;...8NNBBNMM321njkkkkzzzzklgd:;X................",
".......$vzzkkkkz>...o8qu2njxxkzzzkkzksf:-9%Xo...................",
"........:zkkzkks*.....%hzzzkkkkkkkzg;X..  ......................",
"........:zzkg-%X......&kkkkzzzzzkh:X............................",
"........X;:*X.........%hzzksgf:;*+..............................",
"........... ...........&::*Xo... ...............................",
"................................................................",
"................................................................",
"................................................................",
"................................................................",
"................................................................"
};
