/* XPM */
static char *e096ebd5e1fd4882fe3f59784413c254lbm6hIzerhEUKwUP[] = {
/* columns rows colors chars-per-pixel */
"64 64 239 2 ",
"   c #DE2628",
".  c #DE2528",
"X  c #DE2428",
"o  c #DE2328",
"O  c #DF3228",
"+  c #E1452A",
"@  c #E2572C",
"#  c #E35C2C",
"$  c #E35B2C",
"%  c #E3572D",
"&  c #E35C2D",
"*  c #E35D2D",
"=  c #E2542C",
"-  c #DF3029",
";  c #DE2A28",
":  c #E3572C",
">  c #E88930",
",  c #EDB033",
"<  c #F0C735",
"1  c #F1D136",
"2  c #F1D236",
"3  c #F1D336",
"4  c #F0CF36",
"5  c #EBA832",
"6  c #E7822F",
"7  c #E4632D",
"8  c #E4642D",
"9  c #E4672D",
"0  c #E2482B",
"q  c #DE2828",
"w  c #DE2B29",
"e  c #E99231",
"r  c #F0CD36",
"t  c #F1D836",
"y  c #F2D736",
"u  c #F1D636",
"i  c #F1D536",
"p  c #F1D736",
"a  c #F1D436",
"s  c #E88830",
"d  c #E1492B",
"f  c #DF2D28",
"g  c #DE2F29",
"h  c #F0CD35",
"j  c #F0CA35",
"k  c #EB9A32",
"l  c #E1422A",
"z  c #DE2728",
"x  c #EBA032",
"c  c #EEBC34",
"v  c #E6772F",
"b  c #DF3629",
"n  c #DF2E29",
"m  c #F0CA36",
"M  c #EDB233",
"N  c #E2512B",
"B  c #DF2E28",
"V  c #E88A30",
"C  c #EDB634",
"Z  c #E0412A",
"A  c #E35A2D",
"S  c #EA9832",
"D  c #DE2C29",
"F  c #E77E2F",
"G  c #E5732F",
"H  c #DF2F29",
"J  c #ECAF33",
"K  c #EEC234",
"L  c #E0422A",
"P  c #E0402A",
"I  c #EEC034",
"U  c #EFC835",
"Y  c #F0C535",
"T  c #F0C935",
"R  c #E45B2C",
"E  c #E3562C",
"W  c #F0D036",
"Q  c #E77D2F",
"!  c #E1452B",
"~  c #E1412A",
"^  c #E14A2B",
"/  c #E88430",
"(  c #F0D236",
")  c #F0CB35",
"_  c #E24B2B",
"`  c #F1D036",
"'  c #EDAE33",
"]  c #DF3028",
"[  c #DD2528",
"{  c #DF3129",
"}  c #E77B30",
"|  c #F0CC35",
" . c #EFC735",
".. c #E2552C",
"X. c #F2D836",
"o. c #EB9C32",
"O. c #DE2928",
"+. c #EA9C32",
"@. c #E14F2B",
"#. c #EB9E32",
"$. c #E88831",
"%. c #EFC334",
"&. c #E88730",
"*. c #EDAF33",
"=. c #E3562B",
"-. c #EA9732",
";. c #E2572B",
":. c #F0D136",
">. c #EDB534",
",. c #DF3329",
"<. c #DE2228",
"1. c #E2502C",
"2. c #E2552B",
"3. c #EFC535",
"4. c #E1432A",
"5. c #E24F2B",
"6. c #ECAB33",
"7. c #EEC135",
"8. c #E03D2A",
"9. c #E1482A",
"0. c #E7792F",
"q. c #EFC235",
"w. c #ECAA33",
"e. c #DE2E29",
"r. c #EFC435",
"t. c #EA9831",
"y. c #E78130",
"u. c #EA9A31",
"i. c #E6732E",
"p. c #E0372A",
"a. c #EEBA35",
"s. c #E88D30",
"d. c #EDB133",
"f. c #EDB334",
"g. c #DF392A",
"h. c #E56E2E",
"j. c #DE2B28",
"k. c #F0D436",
"l. c #E7852F",
"z. c #DE2C28",
"x. c #ECA432",
"c. c #F0CE35",
"v. c #E88D31",
"b. c #DE3029",
"n. c #E98E31",
"m. c #EDAF34",
"M. c #E4612C",
"N. c #E67A2F",
"B. c #DD2227",
"V. c #E77F2F",
"C. c #F2D837",
"Z. c #EEC035",
"A. c #E5742E",
"S. c #DE2E28",
"D. c #DD2428",
"F. c #E78030",
"G. c #F0D336",
"H. c #E2532B",
"J. c #E88030",
"K. c #F1D737",
"L. c #EFCA36",
"P. c #ECAF34",
"I. c #E56B2D",
"U. c #DE2327",
"Y. c #E4682D",
"T. c #F0CC36",
"R. c #E67B2F",
"E. c #DF3529",
"W. c #E45F2D",
"Q. c #E4612D",
"!. c #E35D2C",
"~. c #E6742E",
"^. c #E24E2B",
"/. c #F0CE36",
"(. c #E5712E",
"). c #E88630",
"_. c #E99631",
"`. c #DF3429",
"'. c #E1472A",
"]. c #EFC935",
"[. c #E56D2E",
"{. c #E14C2B",
"}. c #E56F2E",
"|. c #E14B2B",
" X c #F0CB36",
".X c #EDB833",
"XX c #E6772E",
"oX c #EEBD34",
"OX c #EBA133",
"+X c #E24C2B",
"@X c #EDB734",
"#X c #ECAC33",
"$X c #E88C30",
"%X c #EFCC35",
"&X c #EFBF35",
"*X c #E03A2A",
"=X c #DD2228",
"-X c #E1502B",
";X c #E03A29",
":X c #E3582C",
">X c #EDBB33",
",X c #ECAD33",
"<X c #E1462B",
"1X c #E98C31",
"2X c #E03929",
"3X c #E1462A",
"4X c #EEBE34",
"5X c #EA9B31",
"6X c #DE2D28",
"7X c #EDB434",
"8X c #E4682E",
"9X c #EBAA33",
"0X c #E03F2A",
"qX c #E24A2B",
"wX c #EEBC35",
"eX c #EA9931",
"rX c #DF3929",
"tX c #EEC235",
"yX c #E2502B",
"uX c #E3612D",
"iX c #DF3229",
"pX c #EDB333",
"aX c #EFC135",
"sX c #EA9631",
"dX c #EB9B32",
"fX c #F2DA36",
"gX c #E78230",
"hX c #E03E2A",
"jX c #E1402A",
"kX c #EEBA34",
"lX c #EEB834",
"zX c #E99030",
"xX c #E6782F",
"cX c #E1492A",
"vX c #E4602D",
"bX c #E35F2C",
"nX c #E2512C",
"mX c #DF3729",
"MX c white",
/* pixels */
"                                                                                                                                ",
"                                                                                                                                ",
"                                                                                                                                ",
"                                                . X o o o o o o o .                                                             ",
"                                            X . O + @ # $ % & * = - X o o o X                                                   ",
"                                        o ; : > , < 1 2 2 1 2 3 4 5 6 7 8 9 0 q X .                                             ",
"                                    . w = e r t y u i i i i i i i p p a a i < s d f X                                           ",
"                                  o g s h p u i i i i i i i i i i i i i i i u u j k l X .                                       ",
"                              . z : x 3 u i i i i i i i i i i i i i i i i i i i u p c v b .                                     ",
"                            . n 6 m t i i i i i i i i i i i i i i i i i i i i i i i p a M N X                                   ",
"                          . B V a u i i i i i i i i i i i i i i i i i i i i i i i i i i t C Z X                                 ",
"                          o A 1 u i i i i i i i i i i i i i i i i i i i i i i i i i i i i p S D .                               ",
"                          . F p i i i i i i i i i i i i i i i i i i i i i i i i i i i i i i 1 G z                               ",
"                        . H J p i i i i i i i i i i i i i u u u i i i i i i i i i i i i i i p K L X                             ",
"                        X P I u i i i i i i i i i i i i 3 U Y T p p i i i i i i i i i i i i i 2 R o                             ",
"                        o E W i i i i i i i i i i i i W Q ! ~ ^ / J ( u i i i i i i i i i i u ) _ X                             ",
"                        o : ` i i i i i i i i i i i p ' ] o X X [ { } | u i i i i i i i i i u  .+ X                             ",
"                        o ..W i i i i i i i i i i i X.o.q         . O.+.t i i i i i i i i i i h @.X                             ",
"                        o @ W u i i i i i i i i i i t #.O.          X $.t i i i i i i i i i u %.P X                             ",
"                        o : 1 i i i i i i i i i i i p ' H .         X &.t i i i i i i i i i p *.- .                             ",
"                        o =.` i i i i i i i i i i i p M { .         z -.t i i i i i i i i i p s                                 ",
"                        o ;.:.i i i i i i i i i i i p >.,..       <.^ %.u i i i i i i i i u r 1.o                               ",
"                        o 2.W i i i i i i i i i i i u 3.4.X     . 5.6.u i i i i i i i i i u 7.8..                               ",
"                        X 9.T u i i i i i i i i i i i i 0.z X O.7 q.p i i i i i i i i i i t w.e..                               ",
"                        X P r.u i i i i i i i i i i i u ) t.y.u.| u i i i i i i i i i i i a i.X                                 ",
"                        . p.a.p i i i i i i i i i i i i u t p t u i i i i i i i i i i i i s.B .                                 ",
"                        . - d.p i i i i i i i i i i i i i i i i i i i i i i i i i i i p f.g.X                                   ",
"                        . - , p i i i i i i i i i i i i i i i i i i i i i i i i i i u 1 h.X                                     ",
"                        . - , p i i i i i i i i i i i i i i i i i i i i i i i i i u 2 y.j..                                     ",
"                        . - d.p i i i i i i i i i i i i i i i i i i i i i i i i u k.l.z..                                       ",
"                          j.x.t i i i i i i i i i i i i i i i i i i i i i i i p c.v.b..                                         ",
"                            n.t i i i i i i i i i i i i i i i i i i i i i i 3 m.M.; .                                           ",
"                          o N.p i i i i i i i i i i i i i i i i i i i i i i ` 9 B..                                             ",
"                          X V.C.i i i i i i i i i i i i i i i i i i i i i i u Z.A.S.o .                                         ",
"                          D.F.t i i i i i i i i i i i i i i i i i i i i i i i p G.+.H.g                                         ",
"                          X J.t i i i i i i i i i i i i i i i i i i i i i i i i i K.L.P.I.O.                                    ",
"                          o 0.p i i i i i i i i i i i i i i i i i i i i i i i i i i u t 4 N.z .                                 ",
"                          U.Y.i i i i i i i i i i i i i i i i i i i i i i i i i i i i i u T.R.E.X                               ",
"                          o W.3 i i i i i i i i i i i i i i i i i i i i i i i i i i i i i u a J Q.q .                           ",
"                          o !.2 i i i i i i i i i i i i i i i i i i i i i i i i i i i i i i i p r ~.O..                         ",
"                          X ^.r u i i i i i i i i i i i i i i i i i i i i i i i i i i i i i i i u /.(.; .                       ",
"                          X d j u i i i i i i i i i i i i i i i i i i i i i i i i i i i i i i i i u W ).H .                     ",
"                          X +  .u i i i i i i i i i i i i i i i i i i i i i i i i i i i i i i i i i u a _.`..                   ",
"                          X '.].u i i i i i i i i i i i i i i u i i i i i i i i i i i i i i i i i i i i u [.o                   ",
"                          X {.T.u i i i i i i i i i i i i u | h p i i i i i i i i i i i i i i i i i i i u }.o                   ",
"                          X |. Xu i i i i i i i i i i i i p .XXXoXi i i i i i i i i i i i i i i i i i i OXb .                   ",
"                          X +X| u i i i i i i i i i i i i p @X`.Z #Xp i i i i i i i i i i i i i i i i $XE..                     ",
"                          X {.%Xu i i i i i i i i i i i i u &X*X=X-Xq.p i i i i i i i i i i i i i t >.;XX                       ",
"                          X {.%Xu i i i i i i i i i i i i u | ^.X . :X>Xp i i i i i i i i i i i u ,X^ .                         ",
"                          X _  Xu i i i i i i i i i i i i i i [.o   X <X6.u i i i i i i i i i ( 1X2XX                           ",
"                          X ^  Xu i i i i i i i i i i i i i t V [     o 3X4Xp i i i i i i i t 5X6XX                             ",
"                          X +XT.u i i i i i i i i i i i i i p 7XE..     [ 8XT u i i i i i u 9X0XX                               ",
"                          X {.%Xu i i i i i i i i i i i i i u ) qXX       z : wXp i i i p eXrXX                                 ",
"                          X P tXu i i i i i i i i i i i i i u /.yXX         o uX/.p u t , 8.o                                   ",
"                          . iXpXp i i i i i i i i i i i i i p 3.L X           O.A.aXr.sX~ .                                     ",
"                            q dXfXp u u i i i i i i p X.p 2 ) gXO.            . z hXjX; X                                       ",
"                            X 7 >.kXq.| 3 3 3 3 3 r lXzXxX!.cXz..                 X X                                           ",
"                              z ,.b hX^.vXQ.Q.Q.bXnXmX  o o X                                                                   ",
"                                . . X X o o o o o X .                                                                           ",
"                                                                                                                                ",
"                                                                                                                                ",
"                                                                                                                                ",
"                                                                                                                                ",
"                                                                                                                                "
};
