/* XPM */
static char *_9e2c66620da4c8398c56bd91f75602by9cN7ThUFJk3cTYo[] = {
/* columns rows colors chars-per-pixel */
"64 64 92 1 ",
"  c #DE2427",
". c #DE2628",
"X c #DE2A29",
"o c #DE332B",
"O c #DD3A2C",
"+ c #E03D2F",
"@ c #E03F30",
"# c #AD753E",
"$ c #B1773D",
"% c #B4793C",
"& c #B97C39",
"* c #D9412B",
"= c #D74B2B",
"- c #D84F2F",
"; c #D5532D",
": c #D4592D",
"> c #E04331",
", c #E14B34",
"< c #E25236",
"1 c #E25738",
"2 c #E25B39",
"3 c #D2642E",
"4 c #D16A2F",
"5 c #CF702F",
"6 c #D46430",
"7 c #D06E30",
"8 c #D96835",
"9 c #CF7230",
"0 c #CD7C31",
"q c #D57635",
"w c #D67F39",
"e c #DE783D",
"r c #E3633C",
"t c #E36A3E",
"y c #986747",
"u c #9A6947",
"i c #94654B",
"p c #986748",
"a c #9A6A4A",
"s c #A16D44",
"d c #A67041",
"f c #A5734B",
"g c #A9774B",
"h c #AE7B4C",
"j c #B27E4D",
"k c #E46F40",
"l c #E47341",
"z c #E57B43",
"x c #BF8037",
"c c #C18136",
"v c #CB8732",
"b c #CC8933",
"n c #C38439",
"m c #D18E37",
"M c #D7863B",
"N c #D18F39",
"B c #D4923C",
"V c #BF894F",
"C c #CA924E",
"Z c #DB9B44",
"A c #D59848",
"S c #DF9F48",
"D c #C99150",
"F c #D69D51",
"G c #D89E51",
"H c #E68045",
"J c #E68847",
"K c #E68C49",
"L c #E7914A",
"P c #E39649",
"I c #E7954B",
"U c #E8974D",
"Y c #E79A4D",
"T c #E89A4D",
"R c #E89D4E",
"E c #DFA048",
"W c #DFA352",
"Q c #E2A34B",
"! c #E3A54C",
"~ c #E4A54D",
"^ c #E8A14F",
"/ c #E6A84F",
"( c #E2A652",
") c #E7A750",
"_ c #E8A150",
"` c #E9A752",
"' c #E3A852",
"] c #E4A852",
"[ c #E8AB53",
"{ c #EAAD53",
"} c #E9AC54",
"| c #E9B054",
/* pixels */
"................................................................",
"................................................................",
"................................................................",
"................................................................",
"................................................................",
"................................................................",
"................................................................",
"................................................................",
"................................................................",
".............................. .................................",
"......................XXooOOOO=;::::::;*oooX....................",
".................Xo=:34900vvvvvvvvvvvvvv00053:OX................",
"...............o=40vvvvvvvvvvvvvvvvvvvvvvvvvvv04;OX.............",
"............o=30vvvvvvvvvvvvvvvvvvvvvvvvvvvvvvvvvv73:o..........",
"..........o;0vvvvvvvvvvvvvvvvvvvvvvvvvvvvvvvvvvvvvvvv9o.........",
".........o9vvvvvvvvvvvvvvvvc&%%&ccccccccvvvvvvvvvvvvvv6X........",
".........-vvvvvvc%%%%%$###duiiiippyppppus#&xxxcvvvvvvvMO........",
"........Xebvvvvcuiiiiiiiiiiiiiiiiiiiiiiiiiiiiiu%vvvvvBPO........",
"........oI!ZBBmnpiiiiiiiiiiiiiiiiiiiiiiiiiiiiiiixbBSQ]RO........",
"........>_}{[[]!CgpiiiiiiiiiiiiiiiiiiiiiiiiiiiifA![}{{TO........",
"........>`{{{{{{{]FVjfaapppppppppppppafghhhhhjD({{{{{{Io........",
"........,`{{{{{{{{{{{(WWGGGGGGGGGGGGGW'][[[[[[{{{{{{{}LX........",
"........>`{{{{{{{{{{{{{{{{{{{{{{{{{{{{{{{{{{{{{{{{{{{}LX........",
"........@_{{{{{{{{{{{{{{{{{{{{{{{{{{{{{{{{{{{{{{{{{{{}LX........",
"........O_{{{{{{{{{{{{{{{{{{{{{{{{{{{{{{{{{{{{{{{{{{{{RO........",
"........O_{{{{{{{{{{{{{{{{{{{{{{{{{{{{{{{{{{{{{{{{{{{{`>........",
"........OT{{{{{{{{{{{{{{{{{{{{{{{{{{{{{{{{{{{{{{{{{{{{`>........",
"........XL}{{{{{{{[{{{{{{{{{{{{{{{{{[[{{[{{{{{{{{{{{{{`>........",
"........XH}{{{{{{[[{{{{{{{{{{{{{{{{{{{{{{{{{{{{{{{{{{}`>........",
".........z{}{{{{{[{{{{{{{{{{{{{{{{{{{{{{{[{{{{{{{{{[_Tlo........",
".........O2HY)!]}{{{{{{{{{{{{{[{{{{{{{{{{{{{{{[~~~I<>oX.........",
"...........XOwbBSQ][[{{}}}}}}}}}}}}[]/][[[[[~EBbbbqX............",
"............XqvvvvmBBBZSEEEEEEESSZZBNbNBBBBBbvvvvv0o............",
"............XeBvvvvvvvvvvvvvvvvvvvvvvvvvvvvvvvvNBB8.............",
".............1)SZBbbbbvvvvvvvvvvvvvbbNbbbbbbNBS][{t.............",
".............OU}{[]!!QSZZZZZZZZZSSS!][~~~~!~]{{{{[1.............",
"..............z}[{{{{{}{{{{{{{{}}}}{{{{{{{{{{{{{{IO.............",
"..............r{{{{{{{{{{{{{{{{{{{{{{{{{{{{{{{{{{r..............",
"..............>`{{{{{{{{{{{{{{{{{{{{{{{{{{{{{{{{RO..............",
"..............OY{{{{{{{{{{{[{{{{{{{{{{{{{{{{{{{}JX..............",
"..............XH}{{{{{{{{{{{{{{{{{{{[[{{{{{{{{{}z...............",
"...............t{{{{{{{{{{{{{{{{{{{{[{{{{{{[{{{}r...............",
"...............>`{{{{{{{{{{{{{{{[{{{{{{{{{{{{{{[,...............",
"...............OT{{{{{{{{{{{[{{{{{{{{{{{{{{{{{{^+...............",
"...............oT{{{{{{{[{{{{{[{{{{{{{{{{{{{{{}LX...............",
"...............XL}{{{{{{[{{{{{[[{{{{{[{{{{{{{{}l................",
"...............XH}{{{{[[{{{{{{{{[[{{{{{{{{{{{{{2................",
"................2[{{{{{{{{{{{{{{{{{{{{{{{{{{{{_>................",
"................oL{{{{{{{{{{{{{{{{{[[{{{{{{{{}KX................",
".................r{{{{{{{{{{{{{{{{{{{{{{{{{{{{t.................",
".................OT{{{{{{{{{{{{[{{{{{{{{{{{{{[,.................",
"..................z}{{{{{{{{{{{{{{{{{{{{{{{{{RO.................",
"..................1[{{{{{{{{{{{{{{{{{{{{{{{{}KX.................",
"..................OY}{{{{{{{{{{{{{{{[[{{{{{{|HX.................",
"...................2_{}}}{{{{{{{{{{{{{}}}}}[L,..................",
"...................X>2tlJI_[{}}}}}}[_YJlllk<o...................",
"........................Xo@<2rttttr<>OX.........................",
"................................................................",
"................................................................",
"................................................................",
"................................................................",
"................................................................",
"................................................................",
"................................................................"
};
