/* XPM */
static char *a853fe9cb6f84013a96016ad58d12ad2d7W8C7SkI7HssEgb[] = {
/* columns rows colors chars-per-pixel */
"64 64 155 2 ",
"   c #211D1E",
".  c #1F1D20",
"X  c #221F20",
"o  c #242021",
"O  c #2B2322",
"+  c #342222",
"@  c #3C2122",
"#  c #332924",
"$  c #392D26",
"%  c #3F3127",
"&  c #373436",
"*  c #452122",
"=  c #4C2122",
"-  c #542123",
";  c #5B2223",
":  c #403227",
">  c #433428",
",  c #4D3A2B",
"<  c #523D2C",
"1  c #403D3F",
"2  c #642223",
"3  c #6D2224",
"4  c #742324",
"5  c #7A2224",
"6  c #57412D",
"7  c #5C442E",
"8  c #61472F",
"9  c #6B4C2F",
"0  c #644931",
"q  c #6B4D32",
"w  c #735334",
"e  c #795736",
"r  c #7C5936",
"t  c #494443",
"y  c #4F4E4F",
"u  c #706D6E",
"i  c #842324",
"p  c #8D2325",
"a  c #932325",
"s  c #9C2425",
"d  c #A62426",
"f  c #AC2427",
"g  c #B52427",
"h  c #BB2527",
"j  c #B52628",
"k  c #C22527",
"l  c #CA2527",
"z  c #C42528",
"x  c #CB2528",
"c  c #D12527",
"v  c #DF2427",
"b  c #D42628",
"n  c #DE2628",
"m  c #DB2C2A",
"M  c #D6352D",
"N  c #DA322B",
"B  c #D4392E",
"V  c #D23E31",
"C  c #E12628",
"Z  c #824A32",
"A  c #825B36",
"S  c #845D38",
"D  c #86613E",
"F  c #8C633A",
"G  c #93673B",
"H  c #95693C",
"J  c #9B6C3E",
"K  c #9F703F",
"L  c #A06F3F",
"P  c #BE653C",
"I  c #BA6B3E",
"U  c #A3713F",
"Y  c #B7713F",
"T  c #CD4632",
"R  c #CB4A34",
"E  c #D14131",
"W  c #C65437",
"Q  c #C85136",
"!  c #C35B39",
"~  c #E0422A",
"^  c #E14C2B",
"/  c #E35C2D",
"(  c #E5692D",
")  c #E77C2E",
"_  c #9C6B47",
"`  c #94654A",
"'  c #9A6A48",
"]  c #A16F46",
"[  c #B86F40",
"{  c #A67344",
"}  c #AA7643",
"|  c #AE7942",
" . c #B57541",
".. c #B87040",
"X. c #B27B43",
"o. c #B57F48",
"O. c #847567",
"+. c #81776E",
"@. c #D28A38",
"#. c #C3933F",
"$. c #C7993E",
"%. c #CA9D3D",
"&. c #E9942F",
"*. c #CFA43C",
"=. c #D5AD3B",
"-. c #D7B03A",
";. c #D9B33A",
":. c #DDB939",
">. c #EBA030",
",. c #EDAE31",
"<. c #E6B035",
"1. c #EDB733",
"2. c #E1BF38",
"3. c #E4C337",
"4. c #EFC633",
"5. c #EBCB35",
"6. c #E6C538",
"7. c #F0CC33",
"8. c #EFD335",
"9. c #F1D434",
"0. c #F1D534",
"q. c #F3D834",
"w. c #F2DD35",
"e. c #B68142",
"r. c #B98541",
"t. c #BD8B40",
"y. c #B6814B",
"u. c #B78756",
"i. c #BB8B5B",
"p. c #B3906D",
"a. c #C2966A",
"s. c #C4986B",
"d. c #C49E78",
"f. c #CAA47C",
"g. c #8D8C8D",
"h. c #999797",
"j. c #A7A6A7",
"k. c #BAB9BB",
"l. c #CDAD8B",
"z. c #D7B99B",
"x. c #D9BFA4",
"c. c #DAC1A5",
"v. c #DEC8AF",
"b. c #CFC1B3",
"n. c #E4D1BC",
"m. c #D9D0C6",
"M. c #D1D0CE",
"N. c #D9D9DA",
"B. c #ECDFD2",
"V. c #E6E0D8",
"C. c #F6EDE4",
"Z. c #F8F2EB",
"A. c #F6F4F1",
"S. c #FBF8F4",
"D. c #FEFEFE",
/* pixels */
"n n n n n n n n n n n n n n n n n n n n n n n n n n n n n n n n n n n n n n n n n n n n n n n n n n n n n n n n n n n n n n n n ",
"n n n n n n n n n n n n n n n n n n n n n n n n n n n n n n n n n n n n n n n n n n n n n n n n n n n n n n n n n n n n n n n n ",
"n n n n n n n n n n n n n n n n n n n n n n n n n n n n n n C C C C C C C n n n n n n n n n n n n n n n n n n n n n n n n n n n ",
"n n n n n n n n n n n n n n n n n n n n n n n n C C C C C b h a 5 a s p d b n n n n n C n n n n n n n n n n n n n n n n n n n n ",
"n n n n n n n n n n n n n n n n n n n n n C n b k g z k s ; + o o o o o O - 2 2 2 2 2 i z n n n n n n n n n n n n n n n n n n n ",
"n n n n n n n n n n n n n n n n n n n C x s 5 = + O @ + o o o o o o o o o o o o o o o o = k C n n n n n n n n n n n n n n n n n ",
"n n n n n n n n n n n n n n n n n C c a * o o o o o o o o o o o o o o o o o o o o o o o o ; b C n n n n n n n n n n n n n n n n ",
"n n n n n n n n n n n n n n n n C k - o o o o o o o o o o o o o o o o o o o o o o o o o o o 5 h b C n n n n n n n n n n n n n n ",
"n n n n n n n n n n n n n n n C h = o o o o o o o o o o o o o o o o o o o o o o o o o o o o o O ; a x n n n n n n n n n n n n n ",
"n n n n n n n n n n n n n n n C p o o o o o o o o o o o o o o o o o o o o o o o o o o o o o o o o o ; x n n n n n n n n n n n n ",
"n n n n n n n n n n n n n n n C s O o o o o o o o o o o o o o o o o o o o o o o o o o o o o o o o o o p C n n n n n n n n n n n ",
"n n n n n n n n n n n n n n n a * o o o o o o o o o o o o o o o o o o o o o o o o o o o o o o o o o o 4 n n n n n n n n n n n n ",
"n n n n n n n n n n n n n C d O o o o o o o o o o o o o o X X X X X X X X X X X X o X X o o o o o o o i C n n n n n n n n n n n ",
"n n n n n n n n n n n n n g = o o o o o o o o o X X X o # > , < , : , q e q q q w r q $ X o o o o o @ h C n n n n n n n n n n n ",
"n n n n n n n n n n n C g @ o o o o o o o o X o $ , 7 e J } | X.| } | X.X.X.X.X.X.X.X.J q O X o o o 5 n n n n n n n n n n n n n ",
"n n n n n n n n n n n n 4 o o o o o o o X X : e L | X.X.X.X.X.X.X.X.X.X.X.X.X.X.X.X.X.X.X.S # X o o i C n n n n n n n n n n n n ",
"n n n n n n n n n n n n - o o o o o o o > w U X.X.X.X.X.X.X.X.X.X.X.X.X.X.X.$.*.e.X.X.X.X.X.6 X @ 5 l n n n n n n n n n n n n n ",
"n n n n n n n n n n n l @ o o o o o X , { X.X.X.X.X.X.X.X.X.X.X.X.X.X.X.X.*.8.8.$.X.X.X.X.X.K Z j n n n n n v v n n n n n n n n ",
"n n n n n n n n n n n l @ o o o o o o S X.X.X.X.X.X.X.X.X.X.X.X.X.X.X.X.t.5.0.:.e.X.X.X.X.X.X. .E m N ~ ~ ^ ( ) / n n n n n n n ",
"n n n n n n n n n n n n 3 o o o o X , } X.X.X.X.X.X.X.X.X.X.X.X.X.X.X.X.;.0.5.#.X.r.#.%.=.=.-.;.<.,.1.4.4.7.0.w.&.n n n n n n n ",
"n n n n n n n n n n n C f O o o o X q X.X.X.X.X.X.X.X.X.X.X.X.X.X.X.X.%.8.0.5.2.2.5.8.0.q.q.q.q.q.0.0.7.7.4.1.>.( n n n n n n n ",
"n n n n n n n n n n n n n p + o X $ J X.X.X.X.X.X.X.X.X.X.X.X.X.X.X.X.=.0.0.0.0.0.0.5.3.:.;.=.=.*.@./ ^ ^ ~ N m n n n n n n n n ",
"n n n n n n n n n n n n n n h Z e H X.X.X.X.X.X.X.X.X.X.X.X.X.X.X.X.X.$.8.0.:.%.%.$.t.e.X.X.X.X.X...M v n n n n n n n n n n n n ",
"n n n n n n n n n n n n n n m I X.X.X.X.X.X.X.X.X.X.X.X.X.X.X.X.X.X.X.e.2.0.2.e.X.X.X.X.X.X.X.X.X.X.W n n n n n n n n n n n n n ",
"n n n n n n n n n n n n n n m I X.X.X.X.X.X.X.X.X.X.X.X.X.X.X.X.X.X.X.X.$.8.0.$.X.X.X.X.X.X.X.X.X.X.! n n n n n n n n n n n n n ",
"n n n n n n n n n n n n n n m I X.X.X.X.X.X.X.X.X.X.X.X.X.X.X.X.X.X.X.X.X.;.6.t.X.X.X.X.X.X.X.X.X.X.! n n n n n n n n n n n n n ",
"n n n n n n n n n n n n n n m I X.X.X.X.X.X.X.X.} J S 0 7 q G } X.X.X.X.X.X.r.X.J q 6 6 6 7 r } X.X.I m n n n n n n n n n n n n ",
"n n n n n n n n n n n n n n m I X.X.X.X.X.X.X.S > # o X . X O > S X.X.X.X.X.X.F $ X . X X X o 7 | X. .B n n n n n n n n n n n n ",
"n n n n n n n n n n n n n n m I X.X.X.X.X.X.J # . o $ , 7 : O . < X.X.X.X.X.X.0 o % 8 q 9 < O , } X.X.R n n n n n n n n n n n n ",
"n n n n n n n n n n n n n n m I X.X.X.X.X.X.} 7 , A { i.u.} F w H X.X.X.X.X.X.L S U X.s.f.i.F J X.X.X.W n n n n n n n n n n n n ",
"n n n n n n n n n n n n n n m I X.X.X.X.X.X.X.| } i.n.Z.C.z.y.X.X.X.X.X.X.X.X.X.X.o.x.S.D.V.d.X.X.X.X.W n n n n n n n n n n n n ",
"n n n n n n n n n n n n n n m I X.X.X.X.X.X.X.X.X.v.D.N.k.M.l.X.X.X.X.X.X.X.X.X.X.a.S.A.g.y t e | X.X.W n n n n n n n n n n n n ",
"n n n n n n n n n n n n n n m I X.X.X.X.X.X.X.X.y.B.j.& o & O.X.X.X.X.X.X.X.X.X.X.l.D.h.X     O S X.X.W n n n n n n n n n n n n ",
"n n n n n n n n n n n n n n m I X.X.X.X.X.X.X.X.u.m.t   o X # J X.X.X.X.X.X.X.X.X.c.D.u   o o X q X.X.W n n n n n n n n n n n n ",
"n n n n n n n n n n n n n n m I X.X.X.X.X.X.X.X.y.b.1   o X O J X.X.X.X.X.X.X.X.X.f.S.h.X o X O F X.X.W n n n n n n n n n n n n ",
"n n n n n n n n n n n n n n m I X.X.X.X.X.X.X.X.X.d.+.O X o q | X.X.X.X.X.X.X.X.X.o.a.p., o O 8 | X.X.W n n n n n n n n n n n n ",
"n n n n n n n n n n n n n n m I X.X.X.X.X.X.X.X.X.X.u.D 8 r } X.X.X.X.X.X.X.X.X.X.X.X.X.{ F F } X.X.X.Q n n n n n n n n n n n n ",
"n n n n n n n n n n n n n n m I X.X.X.X.X.X.X.X.X.X.X.X.X.X.X.X.X.X.X.X.X.X.X.X.X.X.X.X.X.X.X.X.X.X.X.R n n n n n n n n n n n n ",
"n n n n n n n n n n n n n n m I X.X.X.X.X.X.X.X.X.X.X.X.X.X.X.} ' _ } X.X.X.X.{ ' _ } X.X.X.X.X.X.X. .B n n n n n n n n n n n n ",
"n n n n n n n n n n n n n n m I X.X.X.X.X.X.X.X.X.X.X.X.X.X.X.] ` ` ` { X.X.{ ` ` ` ] X.X.X.X.X.X.X.P m n n n n n n n n n n n n ",
"n n n n n n n n n n n n n n m I X.X.X.X.X.X.X.X.X.X.X.X.X.X.X.{ ` ` ` ` ' ' ` ` ` ` { X.X.X.X.X.X.X.! n n n n n n n n n n n n n ",
"n n n n n n n n n n n n n n m I X.X.X.X.X.X.X.X.X.X.X.X.X.X.X.X.] ` ` ` ` ` ` ` ` ] X.X.X.X.X.X.X.X.W n n n n n n n n n n n n n ",
"n n n n n n n n n n n n n n m I X.X.X.X.X.X.X.X.X.X.X.X.X.X.X.X.X.{ ' ` ` ` ` ' } X.X.X.X.X.X.X.X.X.R n n n n n n n n n n n n n ",
"n n n n n n n n n n n n n n n ! X.X.X.X.X.X.X.X.X.! W I X.X.X.X.X.X.| } } } } X.X.X.X.X.X.X.X.X.X.P m n n n n n n n n n n n n n ",
"n n n n n n n n n n n n n n v T X.X.X.X.X.X.X.X.P m n B ! I  .X.X.X.X.X.X.X.X.X.X.X.X.X.X.X.X.X.X.R n n n n n n n n n n n n n n ",
"n n n n n n n n n n n n n n n M  .X.X.X.X.X.X.X.R n n n n m V R ! P P I P I ..I ! W P X.X.X.X.X. .B n n n n n n n n n n n n n n ",
"n n n n n n n n n n n n n n n m P X.X.X.X.X.X.X.T n n n n n n n n m m m m m N m n n m W X.X.X.X.W m n n n n n n n n n n n n n n ",
"n n n n n n n n n n n n n n n n T X.X.X.X.X.X.X.I M v n n n n n n n n n n n n n n n n M  .X.X.P m n n n n n n n n n n n n n n n ",
"n n n n n n n n n n n n n n n n m P X.X.X.X.X.X.X.P M n n n n n n n n n n n n n n n v M  .X.X.R n n n n n n n n n n n n n n n n ",
"n n n n n n n n n n n n n n n n n T X.X.X.X.X.X.X.X.I R E M m n n n n n v n n n n n N ! X.X.[ N n n n n n n n n n n n n n n n n ",
"n n n n n n n n n n n n n n n n n m ! X.X.X.X.X.X.X.X.X.X...I ! W R R R T E V E T ! I X.X.X.W n n n n n n n n n n n n n n n n n ",
"n n n n n n n n n n n n n n n n n n M I X.X.X.X.X.X.X.X.X.X.X.X.X.X.X.X.X.X.X.X.X.X.X.X.X. .B n n n n n n n n n n n n n n n n n ",
"n n n n n n n n n n n n n n n n n n n T  .X.X.X.X.X.X.X.X.X.X.X.X.X.X.X.X.X.X.X.X.X.X.X.X.! m n n n n n n n n n n n n n n n n n ",
"n n n n n n n n n n n n n n n n n n n n T  .X.X.X.X.X.X.X.X.X.X.X.X.X.X.X.X.X.X.X.X.X.X.Y M n n n n n n n n n n n n n n n n n n ",
"n n n n n n n n n n n n n n n n n n n n n Q X.X.X.X.X.X.X.X.X.X.X.X.X.X.X.X.X.X.X.X.X.X.R n n n n n n n n n n n n n n n n n n n ",
"n n n n n n n n n n n n n n n n n n n n n m P X.X.X.X.X.X.X.X.X.X.X.X.X.X.X.X.X.X.X.X.! m n n n n n n n n n n n n n n n n n n n ",
"n n n n n n n n n n n n n n n n n n n n n n m T !  .X.X.X.X.X.X.X.X.X.X.X.X.X.X.X.X.I N n n n n n n n n n n n n n n n n n n n n ",
"n n n n n n n n n n n n n n n n n n n n n n n n m R  .X.X.X.X.X.X.X.X.X.X.X.X.X.X.I B n n n n n n n n n n n n n n n n n n n n n ",
"n n n n n n n n n n n n n n n n n n n n n n n n n n T I X.X.X.X.X.X.X.X.X.X.X.X.I B n n n n n n n n n n n n n n n n n n n n n n ",
"n n n n n n n n n n n n n n n n n n n n n n n n n n n N E W P ..X.X.X.X.X.X. .! N n n n n n n n n n n n n n n n n n n n n n n n ",
"n n n n n n n n n n n n n n n n n n n n n n n n n n n n n n m N T ! ! ! ! T M m n n n n n n n n n n n n n n n n n n n n n n n n ",
"n n n n n n n n n n n n n n n n n n n n n n n n n n n n n n n n n n n n n n n n n n n n n n n n n n n n n n n n n n n n n n n n ",
"n n n n n n n n n n n n n n n n n n n n n n n n n n n n n n n n n n n n n n n n n n n n n n n n n n n n n n n n n n n n n n n n ",
"n n n n n n n n n n n n n n n n n n n n n n n n n n n n n n n n n n n n n n n n n n n n n n n n n n n n n n n n n n n n n n n n "
};
